<svg width="80" height="80" viewBox="0 0 80 80" fill="none" xmlns="http://www.w3.org/2000/svg">
<path d="M38.4159 65.8853H6.78796C3.73102 65.8853 1.25308 63.5675 1.25308 60.7084V55.5312H43.7324L38.4159 65.8853Z" fill="#D3DCFB"/>
<path d="M73.2147 24.4688V46.2183V60.7083H6.78796C3.73102 60.7083 1.25308 58.3905 1.25308 55.5313V24.4688L40.0014 11.5259L73.2147 24.4688Z" fill="#EBF5FC"/>
<path d="M10.9886 34.823H8.12641C7.38836 34.823 6.78997 34.2633 6.78997 33.573V30.8959C6.78997 30.2056 7.38836 29.6459 8.12641 29.6459H10.9886C11.7266 29.6459 12.325 30.2056 12.325 30.8959V33.573C12.325 34.2633 11.7266 34.823 10.9886 34.823Z" fill="#3C58A0"/>
<path d="M22.0588 34.823H19.1967C18.4586 34.823 17.8602 34.2633 17.8602 33.573V30.8959C17.8602 30.2056 18.4586 29.6459 19.1967 29.6459H22.0588C22.7969 29.6459 23.3953 30.2056 23.3953 30.8959V33.573C23.3953 34.2633 22.7969 34.823 22.0588 34.823Z" fill="#3C58A0"/>
<path d="M33.1289 34.823H30.2668C29.5287 34.823 28.9303 34.2633 28.9303 33.573V30.8959C28.9303 30.2056 29.5287 29.6459 30.2668 29.6459H33.1289C33.867 29.6459 34.4654 30.2056 34.4654 30.8959V33.573C34.4654 34.2633 33.8671 34.823 33.1289 34.823Z" fill="#3C58A0"/>
<path d="M44.1992 34.823H41.337C40.599 34.823 40.0006 34.2633 40.0006 33.573V30.8959C40.0006 30.2056 40.599 29.6459 41.337 29.6459H44.1992C44.9372 29.6459 45.5356 30.2056 45.5356 30.8959V33.573C45.5356 34.2633 44.9372 34.823 44.1992 34.823Z" fill="#3C58A0"/>
<path d="M55.2676 34.823H52.4055C51.6674 34.823 51.069 34.2633 51.069 33.573V30.8959C51.069 30.2056 51.6674 29.6459 52.4055 29.6459H55.2676C56.0057 29.6459 56.6041 30.2056 56.6041 30.8959V33.573C56.6041 34.2633 56.0057 34.823 55.2676 34.823Z" fill="#3C58A0"/>
<path d="M66.3377 34.823H63.4755C62.7375 34.823 62.1391 34.2633 62.1391 33.573V30.8959C62.1391 30.2056 62.7375 29.6459 63.4755 29.6459H66.3377C67.0758 29.6459 67.6741 30.2056 67.6741 30.8959V33.573C67.6741 34.2633 67.0759 34.823 66.3377 34.823Z" fill="#3C58A0"/>
<path d="M10.9886 45.177H8.12641C7.38836 45.177 6.78997 44.6173 6.78997 43.927V41.2499C6.78997 40.5596 7.38836 39.9999 8.12641 39.9999H10.9886C11.7266 39.9999 12.325 40.5596 12.325 41.2499V43.927C12.325 44.6174 11.7266 45.177 10.9886 45.177Z" fill="#3C58A0"/>
<path d="M22.0588 45.177H19.1967C18.4586 45.177 17.8602 44.6173 17.8602 43.927V41.2499C17.8602 40.5596 18.4586 39.9999 19.1967 39.9999H22.0588C22.7969 39.9999 23.3953 40.5596 23.3953 41.2499V43.927C23.3953 44.6174 22.7969 45.177 22.0588 45.177Z" fill="#3C58A0"/>
<path d="M33.1289 45.177H30.2668C29.5287 45.177 28.9303 44.6173 28.9303 43.927V41.2499C28.9303 40.5596 29.5287 39.9999 30.2668 39.9999H33.1289C33.867 39.9999 34.4654 40.5596 34.4654 41.2499V43.927C34.4654 44.6174 33.8671 45.177 33.1289 45.177Z" fill="#3C58A0"/>
<path d="M45.5356 45.177V41.2942C45.5356 40.5793 44.916 39.9999 44.1519 39.9999H41.3843C40.62 39.9999 40.0006 40.5795 40.0006 41.2942V43.8828C40.0006 44.5976 40.6202 45.177 41.3843 45.177H45.5356Z" fill="#3C58A0"/>
<path d="M10.9886 55.5312H8.12641C7.38836 55.5312 6.78997 54.9715 6.78997 54.2812V51.6042C6.78997 50.9139 7.38836 50.3542 8.12641 50.3542H10.9886C11.7266 50.3542 12.325 50.9139 12.325 51.6042V54.2812C12.325 54.9715 11.7266 55.5312 10.9886 55.5312Z" fill="#3C58A0"/>
<path d="M22.0588 55.5312H19.1967C18.4586 55.5312 17.8602 54.9715 17.8602 54.2812V51.6042C17.8602 50.9139 18.4586 50.3542 19.1967 50.3542H22.0588C22.7969 50.3542 23.3953 50.9139 23.3953 51.6042V54.2812C23.3953 54.9715 22.7969 55.5312 22.0588 55.5312Z" fill="#3C58A0"/>
<path d="M33.1289 55.5312H30.2668C29.5287 55.5312 28.9303 54.9715 28.9303 54.2812V51.6042C28.9303 50.9139 29.5287 50.3542 30.2668 50.3542H33.1289C33.867 50.3542 34.4654 50.9139 34.4654 51.6042V54.2812C34.4654 54.9715 33.8671 55.5312 33.1289 55.5312Z" fill="#3C58A0"/>
<path d="M66.3377 29.6458H63.4756C63.3023 29.6458 63.1374 29.6777 62.9856 29.7338C63.4809 29.9168 63.832 30.3675 63.832 30.896V33.573C63.832 34.1014 63.4811 34.5522 62.9856 34.735C63.1374 34.7911 63.3025 34.823 63.4756 34.823H66.3377C67.0758 34.823 67.6742 34.2633 67.6742 33.573V30.896C67.6742 30.2055 67.0759 29.6458 66.3377 29.6458Z" fill="#2A428C"/>
<path d="M55.2676 29.6458H52.4055C52.2322 29.6458 52.0673 29.6777 51.9155 29.7338C52.4108 29.9168 52.762 30.3675 52.762 30.896V33.573C52.762 34.1014 52.411 34.5522 51.9155 34.735C52.0673 34.7911 52.2322 34.823 52.4055 34.823H55.2676C56.0057 34.823 56.6041 34.2633 56.6041 33.573V30.896C56.6041 30.2055 56.0057 29.6458 55.2676 29.6458Z" fill="#2A428C"/>
<path d="M44.1992 29.6458H41.337C41.1638 29.6458 40.9989 29.6777 40.8471 29.7338C41.3424 29.9168 41.6935 30.3675 41.6935 30.896V33.573C41.6935 34.1014 41.3425 34.5522 40.8471 34.735C40.9989 34.7911 41.1638 34.823 41.337 34.823H44.1992C44.9372 34.823 45.5356 34.2633 45.5356 33.573V30.896C45.5356 30.2055 44.9372 29.6458 44.1992 29.6458Z" fill="#2A428C"/>
<path d="M33.1289 29.6458H30.2668C30.0935 29.6458 29.9286 29.6777 29.7768 29.7338C30.2721 29.9168 30.6233 30.3675 30.6233 30.896V33.573C30.6233 34.1014 30.2723 34.5522 29.7768 34.735C29.9286 34.7911 30.0935 34.823 30.2668 34.823H33.1289C33.867 34.823 34.4654 34.2633 34.4654 33.573V30.896C34.4654 30.2055 33.8671 29.6458 33.1289 29.6458Z" fill="#2A428C"/>
<path d="M22.0588 29.6458H19.1967C19.0234 29.6458 18.8585 29.6777 18.7067 29.7338C19.202 29.9168 19.5532 30.3675 19.5532 30.896V33.573C19.5532 34.1014 19.2022 34.5522 18.7067 34.735C18.8585 34.7911 19.0234 34.823 19.1967 34.823H22.0588C22.7969 34.823 23.3953 34.2633 23.3953 33.573V30.896C23.3953 30.2055 22.7969 29.6458 22.0588 29.6458Z" fill="#2A428C"/>
<path d="M10.9886 29.6458H8.12641C7.95317 29.6458 7.78829 29.6777 7.63644 29.7338C8.13176 29.9168 8.48291 30.3675 8.48291 30.896V33.573C8.48291 34.1014 8.13192 34.5522 7.63644 34.735C7.78829 34.7911 7.95334 34.823 8.12641 34.823H10.9886C11.7266 34.823 12.325 34.2633 12.325 33.573V30.896C12.325 30.2055 11.7266 29.6458 10.9886 29.6458Z" fill="#2A428C"/>
<path d="M10.9886 40H8.12641C7.95317 40 7.78829 40.0319 7.63644 40.088C8.13176 40.2709 8.48291 40.7217 8.48291 41.2502V43.9272C8.48291 44.4556 8.13192 44.9064 7.63644 45.0892C7.78829 45.1453 7.95334 45.1772 8.12641 45.1772H10.9886C11.7266 45.1772 12.325 44.6175 12.325 43.9272V41.25C12.325 40.5597 11.7266 40 10.9886 40Z" fill="#2A428C"/>
<path d="M10.9886 50.3542H8.12641C7.95317 50.3542 7.78829 50.3861 7.63644 50.4422C8.13176 50.6251 8.48291 51.0759 8.48291 51.6043V54.2812C8.48291 54.8097 8.13192 55.2604 7.63644 55.4433C7.78829 55.4993 7.95334 55.5312 8.12641 55.5312H10.9886C11.7266 55.5312 12.325 54.9715 12.325 54.2812V51.6042C12.325 50.9137 11.7266 50.3542 10.9886 50.3542Z" fill="#2A428C"/>
<path d="M22.0588 40H19.1967C19.0234 40 18.8585 40.0319 18.7067 40.088C19.202 40.2709 19.5532 40.7217 19.5532 41.2502V43.9272C19.5532 44.4556 19.2022 44.9064 18.7067 45.0892C18.8585 45.1453 19.0234 45.1772 19.1967 45.1772H22.0588C22.7969 45.1772 23.3953 44.6175 23.3953 43.9272V41.25C23.3953 40.5597 22.7969 40 22.0588 40Z" fill="#2A428C"/>
<path d="M22.0588 50.3542H19.1967C19.0234 50.3542 18.8585 50.3861 18.7067 50.4422C19.202 50.6251 19.5532 51.0759 19.5532 51.6043V54.2812C19.5532 54.8097 19.2022 55.2604 18.7067 55.4433C18.8585 55.4993 19.0234 55.5312 19.1967 55.5312H22.0588C22.7969 55.5312 23.3953 54.9715 23.3953 54.2812V51.6042C23.3953 50.9137 22.7969 50.3542 22.0588 50.3542Z" fill="#2A428C"/>
<path d="M33.1289 40H30.2668C30.0935 40 29.9286 40.0319 29.7768 40.088C30.2721 40.2709 30.6233 40.7217 30.6233 41.2502V43.9272C30.6233 44.4556 30.2723 44.9064 29.7768 45.0892C29.9286 45.1453 30.0935 45.1772 30.2668 45.1772H33.1289C33.867 45.1772 34.4654 44.6175 34.4654 43.9272V41.25C34.4654 40.5597 33.8671 40 33.1289 40Z" fill="#2A428C"/>
<path d="M45.5356 45.177V41.25C45.5356 40.5597 44.9372 40 44.1992 40H41.337C41.1638 40 40.9989 40.0319 40.8471 40.088C41.3424 40.2709 41.6935 40.7217 41.6935 41.2502V43.9272C41.6935 44.4556 41.3425 44.9064 40.8471 45.0892C40.9989 45.1453 41.1638 45.1772 41.337 45.1772H45.5356V45.177Z" fill="#2A428C"/>
<path d="M33.1289 50.3542H30.2668C30.0935 50.3542 29.9286 50.3861 29.7768 50.4422C30.2721 50.6251 30.6233 51.0759 30.6233 51.6043V54.2812C30.6233 54.8097 30.2723 55.2604 29.7768 55.4433C29.9286 55.4993 30.0935 55.5312 30.2668 55.5312H33.1289C33.867 55.5312 34.4654 54.9715 34.4654 54.2812V51.6042C34.4654 50.9137 33.8671 50.3542 33.1289 50.3542Z" fill="#2A428C"/>
<path d="M69.3698 22.9703V46.2183V60.7083H73.2147V46.2183V24.4688L69.3698 22.9703Z" fill="#D3DCFB"/>
<path d="M73.2147 24.4687V11.5259C73.2147 8.66672 70.7366 6.34906 67.6798 6.34906H6.78796C3.73102 6.34906 1.25308 8.66687 1.25308 11.5259V24.4687H73.2147Z" fill="#FF4155"/>
<path d="M24.7772 10.8789C24.7772 12.6659 23.2284 14.1145 21.3178 14.1145C19.4072 14.1145 17.8584 12.6658 17.8584 10.8789V4.4075C17.8584 2.62047 19.4072 1.17188 21.3178 1.17188C23.2284 1.17188 24.7772 2.62047 24.7772 4.4075V10.8789Z" fill="#EBF5FC"/>
<path d="M56.6059 10.8789C56.6059 12.6659 55.0571 14.1145 53.1465 14.1145C51.2359 14.1145 49.6871 12.6658 49.6871 10.8789V4.4075C49.6871 2.62047 51.2359 1.17188 53.1465 1.17188C55.0571 1.17188 56.6059 2.62047 56.6059 4.4075V10.8789Z" fill="#EBF5FC"/>
<path d="M53.1463 1.17188C52.4362 1.17188 51.7763 1.37266 51.227 1.71594C52.1554 2.29625 52.7671 3.28469 52.7671 4.4075V10.8789C52.7671 12.0016 52.1554 12.9902 51.227 13.5705C51.7763 13.9137 52.436 14.1145 53.1463 14.1145C55.057 14.1145 56.6057 12.6658 56.6057 10.8789V4.4075C56.6059 2.62047 55.057 1.17188 53.1463 1.17188Z" fill="#D3DCFB"/>
<path d="M21.3178 1.17188C20.6076 1.17188 19.9478 1.37266 19.3985 1.71594C20.3268 2.29625 20.9386 3.28469 20.9386 4.4075V10.8789C20.9386 12.0016 20.3268 12.9902 19.3985 13.5705C19.9478 13.9137 20.6075 14.1145 21.3178 14.1145C23.2284 14.1145 24.7772 12.6658 24.7772 10.8789V4.4075C24.7772 2.62047 23.2284 1.17188 21.3178 1.17188Z" fill="#D3DCFB"/>
<path d="M67.6798 6.34894H63.8362C66.893 6.34894 69.3711 8.66675 69.3711 11.5258V24.4688H73.2147V11.526C73.2147 8.66675 70.7366 6.34894 67.6798 6.34894Z" fill="#E80054"/>
<path d="M57.9904 78.8281C69.454 78.8281 78.7471 70.1362 78.7471 59.4141C78.7471 48.692 69.454 40 57.9904 40C46.5269 40 37.2338 48.692 37.2338 59.4141C37.2338 70.1362 46.5269 78.8281 57.9904 78.8281Z" fill="#4FABF7"/>
<path d="M57.9904 73.6511C66.3971 73.6511 73.212 67.2769 73.212 59.414C73.212 51.5511 66.3971 45.177 57.9904 45.177C49.5838 45.177 42.7689 51.5511 42.7689 59.414C42.7689 67.2769 49.5838 73.6511 57.9904 73.6511Z" fill="#EBF5FC"/>
<path d="M57.9905 40C57.3426 40 56.7021 40.0292 56.0693 40.0836C66.6321 40.9905 74.9048 49.298 74.9048 59.4141C74.9048 69.5302 66.6321 77.8377 56.0693 78.7445C56.7021 78.7989 57.3426 78.8281 57.9905 78.8281C69.454 78.8281 78.7471 70.1361 78.7471 59.4141C78.7471 48.692 69.4541 40 57.9905 40Z" fill="#1886EA"/>
<path d="M57.9904 45.177C57.3401 45.177 56.6994 45.2154 56.0706 45.2893C63.5709 46.1722 69.3724 52.1593 69.3724 59.4139C69.3724 66.6684 63.5711 72.6556 56.0706 73.5384C56.6994 73.6125 57.3401 73.6508 57.9904 73.6508C66.397 73.6508 73.212 67.2767 73.212 59.4137C73.212 51.5508 66.3972 45.177 57.9904 45.177Z" fill="#D3DCFB"/>
<path d="M57.9904 62.0026C59.519 62.0026 60.7581 60.8437 60.7581 59.414C60.7581 57.9844 59.519 56.8254 57.9904 56.8254C56.4619 56.8254 55.2228 57.9844 55.2228 59.414C55.2228 60.8437 56.4619 62.0026 57.9904 62.0026Z" fill="#FFDD40"/>
<path d="M8.12624 35.9948H10.9886C12.4164 35.9948 13.5779 34.9084 13.5779 33.573V30.8959C13.5779 29.5605 12.4164 28.4741 10.9886 28.4741H8.12624C6.69842 28.4741 5.53688 29.5605 5.53688 30.8959V33.573C5.53688 34.9084 6.69842 35.9948 8.12624 35.9948ZM8.04271 30.8958C8.04271 30.8527 8.0803 30.8177 8.12624 30.8177H10.9886C11.0345 30.8177 11.0721 30.8527 11.0721 30.8958V33.5728C11.0721 33.6159 11.0345 33.6509 10.9886 33.6509H8.12624C8.0803 33.6509 8.04271 33.6159 8.04271 33.5728V30.8958Z" fill="black"/>
<path d="M19.1967 35.9948H22.0588C23.4867 35.9948 24.6482 34.9084 24.6482 33.573V30.8959C24.6482 29.5605 23.4867 28.4741 22.0588 28.4741H19.1967C17.7689 28.4741 16.6073 29.5605 16.6073 30.8959V33.573C16.6073 34.9084 17.7689 35.9948 19.1967 35.9948ZM19.1131 30.8958C19.1131 30.8527 19.1507 30.8177 19.1967 30.8177H22.0588C22.1048 30.8177 22.1424 30.8527 22.1424 30.8958V33.5728C22.1424 33.6159 22.1048 33.6509 22.0588 33.6509H19.1967C19.1507 33.6509 19.1131 33.6159 19.1131 33.5728V30.8958Z" fill="black"/>
<path d="M30.2668 35.9948H33.1289C34.5567 35.9948 35.7183 34.9084 35.7183 33.573V30.8959C35.7183 29.5605 34.5567 28.4741 33.1289 28.4741H30.2668C28.8389 28.4741 27.6774 29.5605 27.6774 30.8959V33.573C27.6774 34.9084 28.8389 35.9948 30.2668 35.9948ZM30.1832 30.8958C30.1832 30.8527 30.2208 30.8177 30.2668 30.8177H33.1289C33.1749 30.8177 33.2125 30.8527 33.2125 30.8958V33.5728C33.2125 33.6159 33.1749 33.6509 33.1289 33.6509H30.2668C30.2208 33.6509 30.1832 33.6159 30.1832 33.5728V30.8958Z" fill="black"/>
<path d="M44.1992 35.9948C45.627 35.9948 46.7885 34.9084 46.7885 33.573V30.8959C46.7885 29.5605 45.627 28.4741 44.1992 28.4741H41.337C39.9092 28.4741 38.7477 29.5605 38.7477 30.8959V33.573C38.7477 34.9084 39.9092 35.9948 41.337 35.9948H44.1992ZM41.2535 33.573V30.8959C41.2535 30.8528 41.2911 30.8178 41.337 30.8178H44.1992C44.2451 30.8178 44.2827 30.8528 44.2827 30.8959V33.573C44.2827 33.6161 44.2451 33.6511 44.1992 33.6511H41.337C41.2911 33.6511 41.2535 33.6161 41.2535 33.573Z" fill="black"/>
<path d="M55.2676 35.9948C56.6954 35.9948 57.857 34.9084 57.857 33.573V30.8959C57.857 29.5605 56.6954 28.4741 55.2676 28.4741H52.4054C50.9776 28.4741 49.8161 29.5605 49.8161 30.8959V33.573C49.8161 34.9084 50.9776 35.9948 52.4054 35.9948H55.2676ZM52.3219 33.573V30.8959C52.3219 30.8528 52.3595 30.8178 52.4054 30.8178H55.2676C55.3135 30.8178 55.3511 30.8528 55.3511 30.8959V33.573C55.3511 33.6161 55.3135 33.6511 55.2676 33.6511H52.4054C52.3593 33.6511 52.3219 33.6161 52.3219 33.573Z" fill="black"/>
<path d="M66.3377 35.9948C67.7655 35.9948 68.9271 34.9084 68.9271 33.573V30.8959C68.9271 29.5605 67.7655 28.4741 66.3377 28.4741H63.4755C62.0477 28.4741 60.8862 29.5605 60.8862 30.8959V33.573C60.8862 34.9084 62.0477 35.9948 63.4755 35.9948H66.3377ZM63.392 33.573V30.8959C63.392 30.8528 63.4296 30.8178 63.4755 30.8178H66.3377C66.3836 30.8178 66.4212 30.8528 66.4212 30.8959V33.573C66.4212 33.6161 66.3836 33.6511 66.3377 33.6511H63.4755C63.4296 33.6511 63.392 33.6161 63.392 33.573Z" fill="black"/>
<path d="M5.53688 43.927C5.53688 45.2625 6.69842 46.3489 8.12624 46.3489H10.9886C12.4164 46.3489 13.5779 45.2625 13.5779 43.927V41.25C13.5779 39.9145 12.4164 38.8281 10.9886 38.8281H8.12624C6.69842 38.8281 5.53688 39.9145 5.53688 41.25V43.927ZM8.04271 41.25C8.04271 41.2069 8.0803 41.1719 8.12624 41.1719H10.9886C11.0345 41.1719 11.0721 41.2069 11.0721 41.25V43.927C11.0721 43.9702 11.0345 44.0052 10.9886 44.0052H8.12624C8.0803 44.0052 8.04271 43.9702 8.04271 43.927V41.25Z" fill="black"/>
<path d="M16.6073 43.927C16.6073 45.2625 17.7689 46.3489 19.1967 46.3489H22.0588C23.4867 46.3489 24.6482 45.2625 24.6482 43.927V41.25C24.6482 39.9145 23.4867 38.8281 22.0588 38.8281H19.1967C17.7689 38.8281 16.6073 39.9145 16.6073 41.25V43.927ZM19.1131 41.25C19.1131 41.2069 19.1507 41.1719 19.1967 41.1719H22.0588C22.1048 41.1719 22.1424 41.2069 22.1424 41.25V43.927C22.1424 43.9702 22.1048 44.0052 22.0588 44.0052H19.1967C19.1507 44.0052 19.1131 43.9702 19.1131 43.927V41.25Z" fill="black"/>
<path d="M27.6774 43.927C27.6774 45.2625 28.8389 46.3489 30.2668 46.3489H33.1289C34.5567 46.3489 35.7183 45.2625 35.7183 43.927V41.25C35.7183 39.9145 34.5567 38.8281 33.1289 38.8281H30.2668C28.8389 38.8281 27.6774 39.9145 27.6774 41.25V43.927ZM30.1832 41.25C30.1832 41.2069 30.2208 41.1719 30.2668 41.1719H33.1289C33.1749 41.1719 33.2125 41.2069 33.2125 41.25V43.927C33.2125 43.9702 33.1749 44.0052 33.1289 44.0052H30.2668C30.2208 44.0052 30.1832 43.9702 30.1832 43.927V41.25Z" fill="black"/>
<path d="M5.53688 54.2812C5.53688 55.6167 6.69842 56.7031 8.12624 56.7031H10.9886C12.4164 56.7031 13.5779 55.6167 13.5779 54.2812V51.6042C13.5779 50.2687 12.4164 49.1823 10.9886 49.1823H8.12624C6.69842 49.1823 5.53688 50.2687 5.53688 51.6042V54.2812ZM8.04271 51.6042C8.04271 51.5611 8.0803 51.5261 8.12624 51.5261H10.9886C11.0345 51.5261 11.0721 51.5611 11.0721 51.6042V54.2812C11.0721 54.3243 11.0345 54.3593 10.9886 54.3593H8.12624C8.0803 54.3593 8.04271 54.3243 8.04271 54.2812V51.6042Z" fill="black"/>
<path d="M16.6073 54.2812C16.6073 55.6167 17.7689 56.7031 19.1967 56.7031H22.0588C23.4867 56.7031 24.6482 55.6167 24.6482 54.2812V51.6042C24.6482 50.2687 23.4867 49.1823 22.0588 49.1823H19.1967C17.7689 49.1823 16.6073 50.2687 16.6073 51.6042V54.2812ZM19.1131 51.6042C19.1131 51.5611 19.1507 51.5261 19.1967 51.5261H22.0588C22.1048 51.5261 22.1424 51.5611 22.1424 51.6042V54.2812C22.1424 54.3243 22.1048 54.3593 22.0588 54.3593H19.1967C19.1507 54.3593 19.1131 54.3243 19.1131 54.2812V51.6042Z" fill="black"/>
<path d="M27.6774 54.2812C27.6774 55.6167 28.8389 56.7031 30.2668 56.7031H33.1289C34.5567 56.7031 35.7183 55.6167 35.7183 54.2812V51.6042C35.7183 50.2687 34.5567 49.1823 33.1289 49.1823H30.2668C28.8389 49.1823 27.6774 50.2687 27.6774 51.6042V54.2812ZM30.1832 51.6042C30.1832 51.5611 30.2208 51.5261 30.2668 51.5261H33.1289C33.1749 51.5261 33.2125 51.5611 33.2125 51.6042V54.2812C33.2125 54.3243 33.1749 54.3593 33.1289 54.3593H30.2668C30.2208 54.3593 30.1832 54.3243 30.1832 54.2812V51.6042Z" fill="black"/>
<path d="M74.4676 45.7822V11.5259C74.4676 8.02516 71.4227 5.17719 67.6797 5.17719H57.8586V4.40766C57.8586 1.97719 55.7447 0 53.1463 0C50.548 0 48.434 1.97719 48.434 4.4075V5.17703H26.0301V4.4075C26.0301 1.97719 23.9162 0 21.3178 0C18.7192 0 16.6053 1.97719 16.6053 4.4075V5.17703H6.78796C3.04509 5.17703 0 8.02516 0 11.5258V29.8906C0 30.5378 0.560805 31.0625 1.25292 31.0625C1.94503 31.0625 2.50583 30.5378 2.50583 29.8906V25.6406H71.9618V43.5192C68.1588 40.5897 63.2904 38.8281 57.9904 38.8281C53.9024 38.8281 50.072 39.8772 46.7884 41.7008V41.2942C46.7884 39.9344 45.6056 38.8281 44.1517 38.8281H41.3843C39.9304 38.8281 38.7477 39.9344 38.7477 41.2942V43.8828C38.7477 45.1259 39.7371 46.1544 41.0174 46.3222C37.8725 49.8828 35.9809 54.4456 35.9809 59.4141C35.9809 59.455 35.9822 59.4955 35.9826 59.5364H6.78796C4.4268 59.5364 2.50583 57.7397 2.50583 55.5314V34.5781C2.50583 33.9309 1.94503 33.4062 1.25292 33.4062C0.560805 33.4062 0 33.9309 0 34.5781V60.7084C0 64.2092 3.04492 67.0572 6.78796 67.0572H9.81918C10.5113 67.0572 11.0721 66.5325 11.0721 65.8853C11.0721 65.2381 10.5113 64.7134 9.81918 64.7134H6.78796C4.4268 64.7134 2.50583 62.9167 2.50583 60.7084V60.453C3.67472 61.3444 5.16552 61.8802 6.78796 61.8802H36.1394C36.2634 62.8467 36.4592 63.7927 36.7216 64.7136H14.8307C14.1386 64.7136 13.5778 65.2383 13.5778 65.8855C13.5778 66.5327 14.1386 67.0573 14.8307 67.0573H37.5547C40.8061 74.6348 48.7406 80 57.9904 80C70.1265 80 80 70.7652 80 59.4141C80 54.1903 77.908 49.4158 74.4676 45.7822ZM50.9399 4.4075C50.9399 3.26953 51.9297 2.34375 53.1463 2.34375C54.363 2.34375 55.3528 3.26953 55.3528 4.4075V10.8789C55.3528 12.0169 54.363 12.9428 53.1463 12.9428C51.9297 12.9428 50.9399 12.017 50.9399 10.8789V4.4075ZM19.1111 4.4075C19.1111 3.26953 20.1011 2.34375 21.3178 2.34375C22.5344 2.34375 23.5242 3.26953 23.5242 4.4075V10.8789C23.5242 12.0169 22.5344 12.9428 21.3178 12.9428C20.1011 12.9428 19.1111 12.017 19.1111 10.8789V4.4075ZM6.78796 7.52078H16.6053V10.3541H15.0908C14.3987 10.3541 13.8379 10.8787 13.8379 11.5259C13.8379 12.1731 14.3987 12.6978 15.0908 12.6978H17.0271C17.7692 14.2228 19.4127 15.2864 21.3178 15.2864C23.2229 15.2864 24.8664 14.223 25.6083 12.6978H27.5446C28.2367 12.6978 28.7975 12.1731 28.7975 11.5259C28.7975 10.8787 28.2367 10.3541 27.5446 10.3541H26.0301V7.52078H48.434V10.3541H46.9193C46.2272 10.3541 45.6664 10.8787 45.6664 11.5259C45.6664 12.1731 46.2272 12.6978 46.9193 12.6978H48.8559C49.5979 14.2228 51.2414 15.2864 53.1463 15.2864C55.0513 15.2864 56.6949 14.223 57.4368 12.6978H59.3733C60.0654 12.6978 60.6262 12.1731 60.6262 11.5259C60.6262 10.8787 60.0654 10.3541 59.3733 10.3541H57.8586V7.52078H67.6797C70.0408 7.52078 71.9618 9.3175 71.9618 11.5258V18.1197H2.506V11.5259C2.506 9.3175 4.42697 7.52078 6.78796 7.52078ZM2.506 23.2969V20.4636H71.962V23.2969H2.506ZM41.2535 41.2942C41.2535 41.2267 41.3123 41.1719 41.3843 41.1719H44.1517C44.2239 41.1719 44.2825 41.2269 44.2825 41.2942V43.3206C43.9862 43.5419 43.6964 43.7702 43.4127 44.0052H41.3841C41.312 44.0052 41.2533 43.9502 41.2533 43.8828V41.2942H41.2535ZM57.9904 77.6562C47.2361 77.6562 38.4867 69.4728 38.4867 59.4141C38.4867 49.3553 47.2361 41.1719 57.9904 41.1719C68.7448 41.1719 77.4942 49.3553 77.4942 59.4141C77.4942 69.4728 68.7448 77.6562 57.9904 77.6562Z" fill="black"/>
<path d="M57.9904 44.0051C48.9065 44.0051 41.5161 50.9175 41.5161 59.414C41.5161 67.9106 48.9065 74.8229 57.9904 74.8229C67.0746 74.8229 74.465 67.9106 74.465 59.414C74.465 50.9175 67.0746 44.0051 57.9904 44.0051ZM57.9904 72.4792C50.288 72.4792 44.0219 66.6183 44.0219 59.414C44.0219 52.2098 50.2882 46.3489 57.9904 46.3489C65.6927 46.3489 71.9591 52.2098 71.9591 59.414C71.9591 66.6183 65.6929 72.4792 57.9904 72.4792Z" fill="black"/>
<path d="M64.9094 58.2422H61.81C61.4119 57.11 60.454 56.2139 59.2435 55.8415V50.3542C59.2435 49.707 58.6827 49.1823 57.9906 49.1823C57.2985 49.1823 56.7377 49.707 56.7377 50.3542V55.8415C55.1326 56.3353 53.9703 57.7497 53.9703 59.414C53.9703 61.4876 55.7738 63.1745 57.9906 63.1745C59.7701 63.1745 61.2823 62.0872 61.81 60.5859H64.9094C65.6015 60.5859 66.1623 60.0612 66.1623 59.414C66.1623 58.7668 65.6015 58.2422 64.9094 58.2422ZM57.9904 60.8307C57.1553 60.8307 56.4759 60.1953 56.4759 59.414C56.4759 58.6328 57.1553 57.9973 57.9904 57.9973C58.8256 57.9973 59.505 58.6328 59.505 59.414C59.505 60.1953 58.8256 60.8307 57.9904 60.8307Z" fill="black"/>
</svg>
