<svg width="100" height="100" viewBox="0 0 100 100" fill="none" xmlns="http://www.w3.org/2000/svg">
<g clip-path="url(#clip0)">
<path d="M0.956112 63.6215C4.36392 97.3856 58.0688 96.2666 83.1444 90.2358C99.2518 86.3619 100.253 78.6202 99.962 62.1106C99.7745 51.4688 100.634 23.2971 93.7112 14.4303C83.0768 0.810574 73.5495 9.35257 60.3799 13.7985C43.4878 19.501 36.9055 9.31956 20.8338 9.62268C-2.72885 10.0676 -0.802677 46.1953 0.956112 63.6215Z" fill="url(#paint0_linear)"/>
<path opacity="0.1" d="M86.7318 25.3264H41.9898L36.4717 19.301C35.7316 18.493 34.6865 18.033 33.591 18.033H15.2213C14.1426 18.033 13.2682 18.9074 13.2682 19.9861V90.3594C13.2682 91.4381 14.1426 92.3125 15.2213 92.3125H86.7316C87.8103 92.3125 88.6847 91.4381 88.6847 90.3594V27.2795C88.6849 26.2008 87.8103 25.3264 86.7318 25.3264Z" fill="#2626BC"/>
<path d="M41.9899 20.4436L36.4717 14.4182C35.7318 13.6102 34.6865 13.1502 33.591 13.1502H15.2213C14.1426 13.1502 13.2682 14.0246 13.2682 15.1033V64.4168H88.6848V22.3967C88.6848 21.318 87.8104 20.4436 86.7316 20.4436H41.9899Z" fill="#FF9D33"/>
<path d="M74.7557 48.4916H27.1975C26.1187 48.4916 25.2443 47.6172 25.2443 46.5384V27.0551C25.2443 25.9763 26.1187 25.1019 27.1975 25.1019H74.7558C75.8346 25.1019 76.709 25.9763 76.709 27.0551V46.5384C76.7088 47.617 75.8344 48.4916 74.7557 48.4916Z" fill="#EBEBFF"/>
<path d="M77.6853 55.4337H24.2678C23.1891 55.4337 22.3147 54.5592 22.3147 53.4805V33.9971C22.3147 32.9184 23.1891 32.044 24.2678 32.044H77.6855C78.7642 32.044 79.6387 32.9184 79.6387 33.9971V53.4805C79.6385 54.5592 78.764 55.4337 77.6853 55.4337Z" fill="white"/>
<path d="M34.4367 49.7385C37.7502 49.7385 40.4363 47.0524 40.4363 43.7389C40.4363 40.4254 37.7502 37.7393 34.4367 37.7393C31.1232 37.7393 28.4371 40.4254 28.4371 43.7389C28.4371 47.0524 31.1232 49.7385 34.4367 49.7385Z" fill="#FF4D4D"/>
<path d="M37.2285 42.4748H35.7008V40.947C35.7008 40.4703 35.3143 40.0837 34.8375 40.0837H34.0361C33.5594 40.0837 33.1729 40.4703 33.1729 40.947V42.4748H31.6451C31.1684 42.4748 30.7819 42.8613 30.7819 43.338V44.1394C30.7819 44.6162 31.1684 45.0027 31.6451 45.0027H33.1729V46.5304C33.1729 47.0072 33.5594 47.3937 34.0361 47.3937H34.8375C35.3143 47.3937 35.7008 47.0072 35.7008 46.5304V45.0027H37.2285C37.7053 45.0027 38.0918 44.6162 38.0918 44.1394V43.338C38.0918 42.8613 37.7053 42.4748 37.2285 42.4748Z" fill="white"/>
<path d="M50.0324 40.7591L43.3615 47.3626H15.2213C14.1426 47.3626 13.2682 48.2371 13.2682 49.3158V85.4763C13.2682 86.555 14.1426 87.4294 15.2213 87.4294H86.7316C87.8104 87.4294 88.6848 86.555 88.6848 85.4763V41.582C88.6848 40.5033 87.8104 39.6288 86.7316 39.6288H52.7805C51.7514 39.6288 50.7639 40.0351 50.0324 40.7591Z" fill="#FFAB66"/>
<path d="M86.7317 19.467H42.4197L37.1918 13.7584C36.2689 12.7511 34.9566 12.1734 33.5908 12.1734H15.2215C13.6061 12.1734 12.2918 13.4877 12.2918 15.1031V41.7103C12.2918 42.2498 12.7289 42.6869 13.2684 42.6869C13.8078 42.6869 14.2449 42.2498 14.2449 41.7103V15.1031C14.2449 14.5646 14.683 14.1265 15.2215 14.1265H33.5912C34.4106 14.1265 35.1982 14.473 35.7518 15.0775L41.2699 21.1031C41.4549 21.305 41.7162 21.4201 41.9902 21.4201H86.732C87.2705 21.4201 87.7086 21.8582 87.7086 22.3966V38.8232C87.4025 38.7146 87.0748 38.6523 86.732 38.6523H73.6031C73.0637 38.6523 72.6266 39.0894 72.6266 39.6289C72.6266 40.1683 73.0637 40.6054 73.6031 40.6054H86.732C87.2705 40.6054 87.7086 41.0435 87.7086 41.582V85.4761C87.7086 86.0146 87.2705 86.4527 86.732 86.4527H15.2215C14.683 86.4527 14.2449 86.0146 14.2449 85.4761V49.3158C14.2449 48.7773 14.683 48.3392 15.2215 48.3392H43.3617C43.6189 48.3392 43.8658 48.2377 44.0488 48.0568L50.7195 41.4531C51.2717 40.9064 52.0037 40.6054 52.7807 40.6054H67.9193C68.4588 40.6054 68.8959 40.1683 68.8959 39.6289C68.8959 39.0894 68.4588 38.6523 67.9193 38.6523H52.7807C51.4857 38.6523 50.2658 39.1539 49.3455 40.0648L42.9602 46.3859H15.2215C13.6061 46.3859 12.2918 47.7002 12.2918 49.3156V85.4761C12.2918 87.0916 13.6061 88.4058 15.2215 88.4058H86.7318C88.3473 88.4058 89.6615 87.0916 89.6615 85.4761V22.3966C89.6613 20.781 88.3473 19.467 86.7317 19.467Z" fill="#0000CC"/>
<path d="M33.2321 20.6422H19.152C18.6127 20.6422 18.1754 20.2049 18.1754 19.6656V18.2092C18.1754 17.6699 18.6127 17.2326 19.152 17.2326H31.9381C32.217 17.2326 32.4828 17.3519 32.6682 17.5605L33.9623 19.017C34.5217 19.6469 34.0746 20.6422 33.2321 20.6422Z" fill="#FF4D4D"/>
<path d="M67.3951 77.1021C74.8913 77.1021 80.9682 71.0252 80.9682 63.529C80.9682 56.0329 74.8913 49.956 67.3951 49.956C59.8989 49.956 53.8221 56.0329 53.8221 63.529C53.8221 71.0252 59.8989 77.1021 67.3951 77.1021Z" fill="#FF4D4D"/>
<path d="M73.7109 60.6695H70.2549V57.2134C70.2549 56.1347 69.3805 55.2603 68.3018 55.2603H66.4889C65.4102 55.2603 64.5358 56.1347 64.5358 57.2134V60.6695H61.0797C60.001 60.6695 59.1266 61.5439 59.1266 62.6226V64.4355C59.1266 65.5142 60.001 66.3886 61.0797 66.3886H64.5358V69.8447C64.5358 70.9234 65.4102 71.7978 66.4889 71.7978H68.3018C69.3805 71.7978 70.2549 70.9234 70.2549 69.8447V66.3886H73.7109C74.7897 66.3886 75.6641 65.5142 75.6641 64.4355V62.6226C75.6641 61.5439 74.7897 60.6695 73.7109 60.6695Z" fill="white"/>
<path d="M24.1293 73.5121H20.4998C19.9604 73.5121 19.5233 73.075 19.5233 72.5355C19.5233 71.9961 19.9604 71.559 20.4998 71.559H24.1293C24.6688 71.559 25.1059 71.9961 25.1059 72.5355C25.1059 73.075 24.6688 73.5121 24.1293 73.5121Z" fill="white"/>
<path d="M31.9418 77.1022H20.4998C19.9604 77.1022 19.5233 76.6651 19.5233 76.1256C19.5233 75.5862 19.9604 75.149 20.4998 75.149H31.9418C32.4813 75.149 32.9184 75.5862 32.9184 76.1256C32.9184 76.6651 32.4813 77.1022 31.9418 77.1022Z" fill="white"/>
<path d="M31.9418 80.6924H20.4998C19.9604 80.6924 19.5233 80.2553 19.5233 79.7158C19.5233 79.1764 19.9604 78.7393 20.4998 78.7393H31.9418C32.4813 78.7393 32.9184 79.1764 32.9184 79.7158C32.9184 80.2553 32.4813 80.6924 31.9418 80.6924Z" fill="white"/>
<path d="M67.2199 9.79846C66.6804 9.79846 66.2433 9.36135 66.2433 8.8219V8.7926C66.2433 8.25315 66.6804 7.81604 67.2199 7.81604C67.7594 7.81604 68.1965 8.25315 68.1965 8.7926V8.8219C68.1965 9.36135 67.7594 9.79846 67.2199 9.79846Z" fill="#6C6CFF"/>
<path d="M67.2199 15.225C66.6804 15.225 66.2433 14.7879 66.2433 14.2484V14.2191C66.2433 13.6797 66.6804 13.2426 67.2199 13.2426C67.7594 13.2426 68.1965 13.6797 68.1965 14.2191V14.2484C68.1965 14.7879 67.7594 15.225 67.2199 15.225Z" fill="#6C6CFF"/>
<path d="M64.8818 11.1479C64.7156 11.1479 64.5474 11.1055 64.3935 11.0162L64.3681 11.0016C63.9013 10.7313 63.742 10.134 64.0123 9.66722C64.2826 9.20003 64.8804 9.04085 65.3467 9.31136L65.372 9.32601C65.8388 9.59632 65.9982 10.1936 65.7279 10.6604C65.547 10.9733 65.2189 11.1479 64.8818 11.1479Z" fill="#6C6CFF"/>
<path d="M69.5816 13.8613C69.4166 13.8613 69.2494 13.8194 69.0961 13.7313L69.0705 13.7166C68.6027 13.4479 68.4416 12.851 68.7103 12.3834C68.9791 11.9158 69.5758 11.7545 70.0435 12.0233L70.0691 12.0379C70.5369 12.3067 70.698 12.9035 70.4293 13.3711C70.2486 13.6854 69.9197 13.8613 69.5816 13.8613Z" fill="#6C6CFF"/>
<path d="M64.8586 13.8613C64.5212 13.8613 64.1935 13.6865 64.0125 13.3738C63.7421 12.907 63.9017 12.3098 64.3683 12.0395L64.3937 12.0248C64.8607 11.7541 65.458 11.9141 65.7281 12.3807C65.9984 12.8475 65.8388 13.4447 65.3722 13.7151L65.3468 13.7297C65.1929 13.819 65.0246 13.8613 64.8586 13.8613Z" fill="#6C6CFF"/>
<path d="M69.558 11.1479C69.2197 11.1479 68.891 10.9721 68.7103 10.6576C68.4416 10.1898 68.6027 9.59317 69.0705 9.32442L69.0961 9.30977C69.564 9.04082 70.1605 9.20215 70.4293 9.66992C70.698 10.1377 70.5369 10.7344 70.0691 11.0031L70.0435 11.0178C69.8902 11.1059 69.7228 11.1479 69.558 11.1479Z" fill="#6C6CFF"/>
<path d="M6.58789 80.5452C6.04844 80.5452 5.61133 80.108 5.61133 79.5686V79.5395C5.61133 79 6.04844 78.5629 6.58789 78.5629C7.12735 78.5629 7.56446 79 7.56446 79.5395V79.5686C7.56446 80.1078 7.12735 80.5452 6.58789 80.5452Z" fill="#FF9D33"/>
<path d="M6.58789 85.9717C6.04844 85.9717 5.61133 85.5346 5.61133 84.9952V84.9661C5.61133 84.4266 6.04844 83.9895 6.58789 83.9895C7.12735 83.9895 7.56446 84.4266 7.56446 84.9661V84.9952C7.56446 85.5346 7.12735 85.9717 6.58789 85.9717Z" fill="#FF9D33"/>
<path d="M4.25 81.8948C4.08379 81.8948 3.91563 81.8524 3.76172 81.7631L3.73633 81.7485C3.26953 81.4782 3.11016 80.8809 3.38047 80.4141C3.65059 79.9471 4.24844 79.7879 4.71485 80.0582L4.74024 80.0729C5.20704 80.3432 5.36641 80.9405 5.0961 81.4073C4.91504 81.72 4.58692 81.8948 4.25 81.8948Z" fill="#FF9D33"/>
<path d="M8.94941 84.6078C8.7832 84.6078 8.61504 84.5655 8.46113 84.4762L8.43574 84.4616C7.96894 84.1912 7.80957 83.594 8.07988 83.1272C8.35019 82.66 8.94805 82.5008 9.41426 82.7713L9.43965 82.786C9.90645 83.0563 10.0658 83.6536 9.79551 84.1203C9.61465 84.4332 9.28652 84.6078 8.94941 84.6078Z" fill="#FF9D33"/>
<path d="M4.22674 84.6078C3.88944 84.6078 3.56171 84.433 3.38065 84.1203C3.11034 83.6535 3.26991 83.0563 3.73651 82.786L3.7619 82.7713C4.2287 82.5004 4.82616 82.6606 5.09628 83.1272C5.36659 83.594 5.20702 84.1912 4.74042 84.4615L4.71503 84.4762C4.56112 84.5656 4.39257 84.6078 4.22674 84.6078Z" fill="#FF9D33"/>
<path d="M8.92598 81.8947C8.58868 81.8947 8.26094 81.7199 8.07989 81.4072C7.80958 80.9404 7.96915 80.3432 8.43575 80.0729L8.46114 80.0582C8.92794 79.7875 9.5254 79.9475 9.79552 80.4141C10.0658 80.8809 9.90626 81.4781 9.43966 81.7484L9.41427 81.7631C9.26036 81.8524 9.092 81.8947 8.92598 81.8947Z" fill="#FF9D33"/>
<path d="M91.6145 95.7629C91.075 95.7629 90.6379 95.3258 90.6379 94.7863C90.6379 94.1043 90.083 93.5492 89.401 93.5492C88.8615 93.5492 88.4244 93.1121 88.4244 92.5727C88.4244 92.0332 88.8615 91.5961 89.401 91.5961C90.083 91.5961 90.6379 91.0412 90.6379 90.3592C90.6379 89.8197 91.075 89.3826 91.6145 89.3826C92.1539 89.3826 92.591 89.8197 92.591 90.3592C92.591 91.0412 93.1461 91.5961 93.8281 91.5961C94.3676 91.5961 94.8047 92.0332 94.8047 92.5727C94.8047 93.1121 94.3676 93.5492 93.8281 93.5492C93.1461 93.5492 92.591 94.1043 92.591 94.7863C92.591 95.3256 92.1539 95.7629 91.6145 95.7629Z" fill="#6C6CFF"/>
<path d="M57.0121 10.6174C56.4727 10.6174 56.0356 10.1803 56.0356 9.64083C56.0356 8.9588 55.4807 8.40392 54.7987 8.40392C54.2592 8.40392 53.8221 7.96681 53.8221 7.42736C53.8221 6.8879 54.2592 6.45079 54.7987 6.45079C55.4807 6.45079 56.0356 5.89572 56.0356 5.21368C56.0356 4.67423 56.4727 4.23712 57.0121 4.23712C57.5516 4.23712 57.9887 4.67423 57.9887 5.21368C57.9887 5.89572 58.5438 6.45079 59.2258 6.45079C59.7653 6.45079 60.2024 6.8879 60.2024 7.42736C60.2024 7.96681 59.7653 8.40392 59.2258 8.40392C58.5438 8.40392 57.9887 8.9588 57.9887 9.64083C57.9887 10.1803 57.5516 10.6174 57.0121 10.6174Z" fill="#FF9D33"/>
<path d="M51.6086 17.6245C51.0691 17.6245 50.632 17.1874 50.632 16.6479C50.632 15.9659 50.0771 15.4108 49.3951 15.4108C48.8557 15.4108 48.4185 14.9737 48.4185 14.4342C48.4185 13.8948 48.8557 13.4577 49.3951 13.4577C50.0771 13.4577 50.632 12.9028 50.632 12.2208C50.632 11.6813 51.0691 11.2442 51.6086 11.2442C52.148 11.2442 52.5851 11.6813 52.5851 12.2208C52.5851 12.9028 53.14 13.4577 53.8221 13.4577C54.3615 13.4577 54.7986 13.8948 54.7986 14.4342C54.7986 14.9737 54.3615 15.4108 53.8221 15.4108C53.14 15.4108 52.5851 15.9659 52.5851 16.6479C52.5851 17.1874 52.148 17.6245 51.6086 17.6245Z" fill="#FF4D4D"/>
</g>
<defs>
<linearGradient id="paint0_linear" x1="5.38658" y1="76.3502" x2="98.5413" y2="22.5672" gradientUnits="userSpaceOnUse">
<stop stop-color="white" stop-opacity="0"/>
<stop offset="0.2532" stop-color="#EEEEFF" stop-opacity="0.403"/>
<stop offset="0.629" stop-color="#D9D9FF"/>
</linearGradient>
<clipPath id="clip0">
<rect width="100" height="100" fill="white"/>
</clipPath>
</defs>
</svg>
