<svg width="80" height="80" viewBox="0 0 80 80" fill="none" xmlns="http://www.w3.org/2000/svg">
<path d="M72.4498 35.4305H67.877C66.4397 36.0364 64.9089 36.3567 63.3411 36.3567C61.7731 36.3567 60.2423 36.0364 58.805 35.4305H55.3823C55.7825 35.9759 56.022 36.6469 56.022 37.3745C56.022 39.1884 54.5514 40.6642 52.7438 40.6642H51.8488C51.7805 40.6642 51.7203 40.7085 51.6998 40.7735C50.8311 43.5216 49.19 45.8628 47.1111 47.5408V49.5884H48.6283C52.4689 49.5884 55.5934 52.7242 55.5934 56.5786V60.3597H78.7436C79.2014 60.3597 79.5716 59.9878 79.5716 59.5289V42.5769C79.5713 38.6363 76.3766 35.4305 72.4498 35.4305Z" fill="#FB8276"/>
<path d="M63.3411 36.3568C61.3847 36.3568 59.4852 35.8613 57.7545 34.9283L62.6131 44.5161C63.0134 45.3066 63.6689 45.3066 64.0692 44.5161L68.9277 34.9282C67.1969 35.8611 65.2975 36.3568 63.3411 36.3568Z" fill="#FFB98A"/>
<path opacity="0.1" d="M57.7545 34.9283L62.6131 44.5161C63.0134 45.3066 63.6689 45.3066 64.0692 44.5161L65.0114 42.6567L61.7622 36.2445C60.3656 36.0523 59.0152 35.6078 57.7545 34.9283Z" fill="black"/>
<path d="M76.5653 19.9583H76.1786V22.5795C76.1786 24.0234 75.9411 25.4675 75.4981 26.8503H76.5653C78.4623 26.8503 80 25.3079 80 23.4043C80 21.5012 78.4622 19.9583 76.5653 19.9583Z" fill="#FFB98A"/>
<path d="M63.3411 5.63794C56.1642 5.63794 50.347 10.6804 50.347 18.0159V19.6043C51.9353 21.8323 53.0139 24.5642 53.3581 27.5801C53.3658 27.6479 53.4169 27.7031 53.4841 27.7159C54.5486 27.9193 55.3211 28.8528 55.3211 29.9353V30.9587C55.3211 31.649 55.0095 32.2672 54.5208 32.6823C56.8377 35.0268 59.9361 36.5129 63.3412 36.5129C70.5175 36.5129 76.335 29.915 76.335 22.5795V18.0159C76.3348 10.6804 70.5172 5.63794 63.3411 5.63794Z" fill="#FFD5B3"/>
<path d="M63.3411 5.63794C56.1642 5.63794 50.347 10.6804 50.347 18.0159V19.6043C50.4111 19.6942 50.4737 19.7853 50.5361 19.8768H59.0737C62.9655 19.8768 66.3016 17.4928 67.7133 14.1009C69.1228 17.4876 72.4509 19.8692 76.335 19.8765V18.0161C76.3348 10.6804 70.5172 5.63794 63.3411 5.63794Z" fill="#F7931E"/>
<path d="M64.2619 27.9964H63.482C62.4058 27.9964 61.5303 27.1092 61.5303 26.0189V23.5378C61.5303 22.8907 62.0549 22.366 62.7022 22.366C63.3495 22.366 63.8741 22.8907 63.8741 23.5378V25.6527H64.2619C64.9092 25.6527 65.4338 26.1774 65.4338 26.8246C65.4338 27.4717 64.9092 27.9964 64.2619 27.9964Z" fill="#775436"/>
<path d="M56.8383 26.2102C56.1911 26.2102 55.6664 25.6855 55.6664 25.0383V23.4249C55.6664 22.7777 56.1911 22.253 56.8383 22.253C57.4856 22.253 58.0102 22.7777 58.0102 23.4249V25.0383C58.0102 25.6855 57.4855 26.2102 56.8383 26.2102Z" fill="#775436"/>
<path d="M69.4131 26.2102C68.7658 26.2102 68.2413 25.6855 68.2413 25.0383V23.4249C68.2413 22.7777 68.7658 22.253 69.4131 22.253C70.0605 22.253 70.585 22.7777 70.585 23.4249V25.0383C70.585 25.6855 70.0605 26.2102 69.4131 26.2102Z" fill="#775436"/>
<path d="M63.3411 34.3717C60.9281 34.3717 58.965 32.4036 58.965 29.9844C58.965 29.3372 59.4895 28.8125 60.1369 28.8125C60.7842 28.8125 61.3088 29.3372 61.3088 29.9844C61.3088 31.1112 62.2205 32.028 63.3411 32.028C64.4619 32.028 65.3736 31.1112 65.3736 29.9844C65.3736 29.3372 65.8981 28.8125 66.5455 28.8125C67.1928 28.8125 67.7174 29.3372 67.7174 29.9844C67.7174 32.4036 65.7541 34.3717 63.3411 34.3717Z" fill="#775436"/>
<path d="M70.1461 54.251C69.8948 54.251 69.6897 54.0458 69.6897 53.7935V50.9952H66.8995C66.6477 50.9952 66.4434 50.7899 66.4434 50.5377V48.1696C66.4434 47.9174 66.6477 47.7124 66.8995 47.7124H69.6897V44.9139C69.6897 44.6618 69.8948 44.4566 70.1461 44.4566H72.5075C72.7591 44.4566 72.9634 44.6618 72.9634 44.9139V47.7125H75.7541C76.0056 47.7125 76.2102 47.9175 76.2102 48.1697V50.5379C76.2102 50.7902 76.0056 50.9954 75.7541 50.9954H72.9634V53.7936C72.9634 54.046 72.7591 54.2511 72.5075 54.2511H70.1461V54.251Z" fill="white"/>
<path d="M20.6792 59.26C21.3158 58.6244 22.1623 58.2742 23.0628 58.2742C23.1917 58.2742 23.3191 58.2834 23.4451 58.2975V56.5788C23.4451 52.7244 26.5698 49.5886 30.4105 49.5886H32.8891V48.2508C30.3558 46.5574 28.3373 43.9331 27.3386 40.7735C27.3181 40.7085 27.2578 40.6642 27.1897 40.6642H26.2937C24.4869 40.6642 23.0166 39.1884 23.0166 37.3745C23.0166 36.6469 23.2559 35.9758 23.6561 35.4305H21.195C19.7576 36.0364 18.2269 36.3567 16.6591 36.3567C15.0911 36.3567 13.5603 36.0364 12.123 35.4305H7.55015C3.62328 35.4305 0.428589 38.6364 0.428589 42.5769V59.5289C0.428589 59.9878 0.799058 60.3597 1.25671 60.3597H19.9447C20.1117 59.9531 20.3589 59.5799 20.6792 59.26Z" fill="#7227D2"/>
<g opacity="0.1">
<path opacity="0.1" d="M3.78265 59.5289V42.5769C3.78265 38.6363 6.97734 35.4305 10.9042 35.4305H7.55015C3.62328 35.4305 0.428589 38.6364 0.428589 42.5769V59.5289C0.428589 59.9878 0.799058 60.3597 1.25671 60.3597H4.61078C4.15312 60.3599 3.78265 59.9878 3.78265 59.5289Z" fill="black"/>
</g>
<path d="M16.6589 36.3567C14.7025 36.3567 12.803 35.8613 11.0725 34.9281L15.9311 44.5159C16.3315 45.3064 16.987 45.3064 17.3872 44.5159L22.2455 34.928C20.5148 35.8611 18.6155 36.3567 16.6589 36.3567Z" fill="#D7B294"/>
<path opacity="0.1" d="M11.0725 34.9282L15.9311 44.516C16.3315 45.3065 16.987 45.3065 17.3872 44.516L18.3303 42.6547L15.0822 36.2447C13.6847 36.0527 12.3337 35.6082 11.0725 34.9282Z" fill="black"/>
<path d="M3.82109 22.5795V19.9583H3.43344C1.53719 19.9583 0 21.5012 0 23.4043C0 25.3079 1.53719 26.8503 3.43344 26.8503H4.50172C4.05859 25.4675 3.82109 24.0234 3.82109 22.5795Z" fill="#D7B294"/>
<path d="M23.7175 30.9587V29.9353C23.7175 28.8528 24.49 27.9193 25.5544 27.7159C25.6216 27.7029 25.6727 27.6479 25.6803 27.5801C26.0899 23.9901 27.5403 20.8034 29.653 18.39V18.0159C29.653 10.6806 23.8353 5.63794 16.6591 5.63794C9.48235 5.63794 3.66501 10.6804 3.66501 18.0159V22.5795C3.66501 29.9148 9.48235 36.5129 16.6591 36.5129C19.8849 36.5129 22.8356 35.1792 25.1074 33.0453C24.292 32.7037 23.7175 31.8973 23.7175 30.9587Z" fill="#D7B294"/>
<g opacity="0.1">
<path opacity="0.1" d="M7.00204 22.5795V18.0159C7.00204 11.2589 11.9395 6.45091 18.3275 5.73419C17.7809 5.67278 17.2247 5.63794 16.6589 5.63794C9.4822 5.63794 3.66486 10.6804 3.66486 18.0159V22.5795C3.66486 29.9148 9.4822 36.5129 16.6589 36.5129C17.2242 36.5129 17.7813 36.4718 18.3275 36.3928C11.9389 35.4686 7.00204 29.337 7.00204 22.5795Z" fill="black"/>
</g>
<path d="M17.58 25.773H16.8002C15.7238 25.773 14.8483 24.8858 14.8483 23.7955V21.3144C14.8483 20.6672 15.3728 20.1425 16.0202 20.1425C16.6675 20.1425 17.192 20.6672 17.192 21.3144V23.4292H17.58C18.2274 23.4292 18.7519 23.9539 18.7519 24.6011C18.7519 25.2483 18.2272 25.773 17.58 25.773Z" fill="#775436"/>
<path d="M10.1562 23.9869C9.50891 23.9869 8.98438 23.4622 8.98438 22.815V21.2017C8.98438 20.5545 9.50891 20.0298 10.1562 20.0298C10.8036 20.0298 11.3281 20.5545 11.3281 21.2017V22.815C11.3281 23.4622 10.8036 23.9869 10.1562 23.9869Z" fill="#775436"/>
<path d="M22.7311 23.9869C22.0838 23.9869 21.5592 23.4622 21.5592 22.815V21.2017C21.5592 20.5545 22.0838 20.0298 22.7311 20.0298C23.3784 20.0298 23.903 20.5545 23.903 21.2017V22.815C23.903 23.4622 23.3783 23.9869 22.7311 23.9869Z" fill="#775436"/>
<path d="M16.6589 32.1484C14.2459 32.1484 12.2828 30.1803 12.2828 27.761C12.2828 27.1139 12.8074 26.5892 13.4547 26.5892C14.102 26.5892 14.6266 27.1139 14.6266 27.761C14.6266 28.8879 15.5383 29.8046 16.6589 29.8046C17.7797 29.8046 18.6914 28.8879 18.6914 27.761C18.6914 27.1139 19.2159 26.5892 19.8633 26.5892C20.5106 26.5892 21.0352 27.1139 21.0352 27.761C21.0352 30.1801 19.072 32.1484 16.6589 32.1484Z" fill="#775436"/>
<path d="M7.88858 54.5966C7.63702 54.5966 7.43202 54.3914 7.43202 54.1392V51.3409H4.64187C4.39015 51.3409 4.18593 51.1356 4.18593 50.8836V48.5153C4.18593 48.2633 4.39015 48.0583 4.64187 48.0583H7.43202V45.2597C7.43202 45.0075 7.63702 44.8022 7.88858 44.8022H10.25C10.5014 44.8022 10.7058 45.0073 10.7058 45.2597V48.0583H13.4964C13.7481 48.0583 13.9525 48.2633 13.9525 48.5153V50.8836C13.9525 51.1358 13.7481 51.3409 13.4964 51.3409H10.7058V54.1392C10.7058 54.3916 10.5014 54.5966 10.25 54.5966H7.88858Z" fill="white"/>
<path d="M48.628 49.4324H43.9813C42.5653 50.0182 41.0602 50.3269 39.5192 50.3269C37.9783 50.3269 36.473 50.018 35.057 49.4324H30.4103C26.4834 49.4324 23.2887 52.6382 23.2887 56.5788V58.2853C24.1039 58.3391 24.8633 58.678 25.4461 59.26L26.4987 60.311C26.5291 60.3414 26.5691 60.3567 26.6091 60.3567C26.6491 60.3567 26.6889 60.3416 26.7194 60.3111L27.7723 59.2602C28.4084 58.6244 29.2548 58.2744 30.1555 58.2744C31.0561 58.2744 31.9027 58.6244 32.5391 59.2602C33.1756 59.8957 33.5261 60.7407 33.5261 61.6397C33.5261 62.5388 33.1755 63.3839 32.5389 64.0196L26.9786 69.5307C26.8744 69.6344 26.7359 69.6913 26.5887 69.6913C26.4408 69.6913 26.3016 69.6338 26.1969 69.5294L23.2887 66.6255V73.531C23.2887 73.9899 23.6594 74.3619 24.117 74.3619H54.9214C55.3792 74.3619 55.7494 73.9899 55.7494 73.531V56.5788C55.7494 52.6382 52.5547 49.4324 48.628 49.4324Z" fill="#48C1E1"/>
<g opacity="0.1">
<path opacity="0.1" d="M25.4461 59.26L26.4987 60.3109C26.5291 60.3414 26.5691 60.3567 26.6091 60.3567C26.6194 60.3567 26.6295 60.3528 26.6397 60.3508V56.5789C26.6397 52.6383 29.8342 49.4325 33.7611 49.4325H30.4103C26.4834 49.4325 23.2887 52.6383 23.2887 56.5789V58.2855C24.1041 58.3391 24.8634 58.678 25.4461 59.26Z" fill="black"/>
<path opacity="0.1" d="M26.6407 73.5308V69.6861C26.6238 69.6876 26.6069 69.6911 26.5897 69.6911C26.4418 69.6911 26.3026 69.6336 26.1979 69.5292L23.2897 66.6253V73.5308C23.2897 73.9897 23.6604 74.3617 24.118 74.3617H27.4688C27.0111 74.3617 26.6407 73.9897 26.6407 73.5308Z" fill="black"/>
</g>
<path d="M26.5889 69.8473C26.3994 69.8473 26.2209 69.7736 26.0867 69.6398L20.5688 64.13C19.9036 63.4656 19.5372 62.5811 19.5372 61.6397C19.5372 60.6984 19.9036 59.8139 20.5688 59.1495C21.235 58.4844 22.1206 58.1181 23.0628 58.1181C24.0048 58.1181 24.8906 58.4844 25.5567 59.1495L26.6092 60.2004L27.6622 59.1495C28.3278 58.4844 29.2138 58.1181 30.1556 58.1181C31.0978 58.1181 31.9836 58.4844 32.6497 59.1495C33.3159 59.8145 33.6825 60.699 33.6825 61.6397C33.6825 62.5804 33.3158 63.4647 32.6494 64.13L27.0888 69.6414C26.9553 69.7742 26.7775 69.8473 26.5889 69.8473Z" fill="#FB8276"/>
<g opacity="0.1">
<path opacity="0.1" d="M23.8278 64.13C23.1625 63.4656 22.7963 62.5811 22.7963 61.6397C22.7963 60.6984 23.1625 59.8139 23.8278 59.1495C24.0859 58.8919 24.3778 58.6803 24.6922 58.5162C24.1948 58.2569 23.6398 58.1181 23.0627 58.1181C22.1205 58.1181 21.2348 58.4844 20.5686 59.1495C19.9034 59.8139 19.537 60.6984 19.537 61.6397C19.537 62.5812 19.9034 63.4658 20.5686 64.13L26.0866 69.6398C26.2206 69.7736 26.3992 69.8473 26.5888 69.8473C26.7773 69.8473 26.9552 69.7742 27.0886 69.6414L28.2222 68.5179L23.8278 64.13Z" fill="black"/>
</g>
<path d="M26.6814 36.5497V33.9285H26.2937C24.3975 33.9285 22.8603 35.4716 22.8603 37.3746C22.8603 39.278 24.3975 40.8205 26.2937 40.8205H27.3619C26.9187 39.4377 26.6814 37.9938 26.6814 36.5497Z" fill="#FFB98A"/>
<path d="M52.7436 33.9285H52.3569V36.5497C52.3569 37.9936 52.1194 39.4377 51.6763 40.8205H52.7434C54.6403 40.8205 56.178 39.278 56.178 37.3746C56.1781 35.4716 54.6403 33.9285 52.7436 33.9285Z" fill="#FFB98A"/>
<path d="M39.5194 50.3269C37.563 50.3269 35.6633 49.8314 33.9327 48.8983L38.7913 58.4863C39.1917 59.2768 39.847 59.2768 40.2475 58.4863L45.1056 48.8985C43.3752 49.8314 41.4756 50.3269 39.5194 50.3269Z" fill="#FFB98A"/>
<path opacity="0.1" d="M33.9327 48.8983L38.7913 58.4863C39.1917 59.2768 39.847 59.2768 40.2475 58.4863L41.1889 56.628L37.9389 50.2146C36.5427 50.0224 35.1928 49.5777 33.9327 48.8983Z" fill="black"/>
<path d="M36.0628 14.2159C37.1689 13.8978 38.3267 13.7278 39.5194 13.7278C40.712 13.7278 41.8695 13.8976 42.9756 14.2158C44.0561 13.1394 44.7391 11.5692 44.7391 9.82202C44.7391 9.4567 44.4439 9.16077 44.0803 9.16077H34.9578C34.5939 9.16077 34.2989 9.4567 34.2989 9.82202C34.2991 11.5692 34.982 13.1395 36.0628 14.2159Z" fill="#D5E962"/>
<path opacity="0.1" d="M36.0628 14.2159C36.9923 13.9486 37.9586 13.7866 38.9512 13.7417C38.1183 12.7017 37.6083 11.3289 37.6083 9.8222C37.6083 9.45689 37.9031 9.16095 38.267 9.16095H34.9578C34.5939 9.16095 34.2989 9.45689 34.2989 9.8222C34.2991 11.5692 34.982 13.1395 36.0628 14.2159Z" fill="black"/>
<path d="M26.5252 33.201V36.5497C26.5252 43.8851 32.3427 50.4832 39.5194 50.4832C46.6956 50.4832 52.5131 43.8851 52.5131 36.5497V33.201H26.5252Z" fill="#FFD5B3"/>
<g opacity="0.1">
<path opacity="0.1" d="M29.8592 36.5497V33.201H26.5252V36.5497C26.5252 43.8851 32.3427 50.4832 39.5194 50.4832C40.0841 50.4832 40.6405 50.4421 41.1863 50.3632C34.7969 49.4399 29.8592 43.3079 29.8592 36.5497Z" fill="black"/>
</g>
<path d="M32.8592 39.1816C32.8591 39.1816 32.8591 39.1816 32.8592 39.1816C31.6688 39.1816 30.5494 38.7161 29.7073 37.8708C29.2505 37.4124 29.2519 36.6703 29.7102 36.2136C30.1686 35.7569 30.9106 35.7582 31.3675 36.2168C31.7667 36.6174 32.2964 36.838 32.8591 36.838C33.4219 36.838 33.9516 36.6174 34.3509 36.2168C34.8077 35.7583 35.5497 35.7569 36.0081 36.2138C36.4667 36.6707 36.4678 37.4125 36.0111 37.871C35.1689 38.7161 34.0494 39.1816 32.8592 39.1816Z" fill="#775436"/>
<path d="M45.372 39.1816C45.3719 39.1816 45.3719 39.1816 45.372 39.1816C44.1816 39.1816 43.0623 38.7161 42.2203 37.8708C41.7634 37.4124 41.7649 36.6703 42.2231 36.2136C42.6817 35.7569 43.4238 35.7582 43.8805 36.2168C44.2797 36.6174 44.8092 36.8378 45.3719 36.838C45.372 36.838 45.372 36.838 45.372 36.838C45.9348 36.838 46.4645 36.6174 46.8639 36.2166C47.3208 35.7582 48.0628 35.7569 48.5211 36.2138C48.9797 36.6707 48.9808 37.4127 48.5241 37.8711C47.6817 38.7161 46.5622 39.1816 45.372 39.1816Z" fill="#775436"/>
<path d="M40.6753 42.455H39.8953C38.8189 42.455 37.9434 41.5678 37.9434 40.4775V37.9964C37.9434 37.3492 38.468 36.8245 39.1153 36.8245C39.7627 36.8245 40.2872 37.3492 40.2872 37.9964V40.1114H40.6753C41.3227 40.1114 41.8472 40.6361 41.8472 41.2833C41.8472 41.9303 41.3227 42.455 40.6753 42.455Z" fill="#775436"/>
<path d="M39.5191 47.4842H39.5189C37.778 47.4842 36.1411 46.8033 34.9092 45.5669C34.4525 45.1085 34.4539 44.3664 34.9123 43.9096C35.3708 43.4527 36.1127 43.4539 36.5697 43.9127C37.3584 44.7043 38.4058 45.1403 39.5189 45.1403C40.6322 45.1403 41.6798 44.7044 42.4689 43.9125C42.9255 43.4539 43.6675 43.4527 44.1261 43.9096C44.5845 44.3664 44.5858 45.1083 44.1291 45.5669C42.8972 46.8033 41.26 47.4842 39.5191 47.4842Z" fill="#775436"/>
<path d="M25.9756 27.7362H53.0625C53.2252 27.7362 53.3842 27.753 53.538 27.7841C52.7223 19.7667 46.7577 13.5433 39.5192 13.5433C32.2805 13.5433 26.3156 19.7667 25.5 27.7841C25.6541 27.753 25.813 27.7362 25.9756 27.7362Z" fill="#89C947"/>
<path opacity="0.1" d="M25.9756 27.7362H28.8364C29.6061 20.3659 34.7264 14.5217 41.1834 13.6555C40.6375 13.5822 40.0823 13.5433 39.5194 13.5433C32.2806 13.5433 26.3158 19.7667 25.5002 27.7841C25.6541 27.753 25.813 27.7362 25.9756 27.7362Z" fill="black"/>
<path d="M55.4772 30.9587C55.4772 32.2881 54.3906 33.3758 53.0627 33.3758H25.9756C24.6477 33.3758 23.5612 32.2881 23.5612 30.9587V29.9353C23.5612 28.6061 24.6477 27.5184 25.9756 27.5184H53.0625C54.3905 27.5184 55.477 28.6061 55.477 29.9353L55.4772 30.9587Z" fill="#D5E962"/>
<g opacity="0.1">
<path opacity="0.1" d="M26.9172 30.9587V29.9353C26.9172 28.6061 28.0037 27.5184 29.3317 27.5184H25.9756C24.6477 27.5184 23.5612 28.6061 23.5612 29.9353V30.9587C23.5612 32.2881 24.6477 33.3758 25.9756 33.3758H29.3317C28.0037 33.3758 26.9172 32.2881 26.9172 30.9587Z" fill="black"/>
</g>
<path d="M45.8058 68.5397C45.5542 68.5397 45.3494 68.3346 45.3494 68.0822V65.2841H42.5591C42.3073 65.2841 42.1031 65.0789 42.1031 64.8266V62.4585C42.1031 62.2063 42.3073 62.0013 42.5591 62.0013H45.3494V59.2025C45.3494 58.9505 45.5542 58.7452 45.8058 58.7452H48.1672C48.4186 58.7452 48.6231 58.9505 48.6231 59.2025V62.0013H51.4136C51.6653 62.0013 51.8697 62.2063 51.8697 62.4585V64.8266C51.8697 65.0788 51.6653 65.2841 51.4136 65.2841H48.6231V68.0822C48.6231 68.3346 48.4186 68.5397 48.1672 68.5397H45.8058Z" fill="white"/>
</svg>
