<svg width="78" height="78" viewBox="0 0 78 78" fill="none" xmlns="http://www.w3.org/2000/svg">
<path d="M35 66.25H27.5V76.25H35V66.25Z" fill="#B4DD7F"/>
<path d="M48.75 51.25V76.25H41.25V54.5375L42.1625 53.625L40.9875 51.25H48.75Z" fill="#B4DD7F"/>
<path d="M62.5 43.75V76.25H55V51.25V43.75H58.75H62.5Z" fill="#B4DD7F"/>
<path d="M76.25 33.75H68.75V76.25H76.25V33.75Z" fill="#B4DD7F"/>
<path d="M1.25 16.25V48.75C1.25 50.125 2.375 51.25 3.75 51.25H11.5125L11.675 50.925C10.4375 49.075 9.55 46.975 9.1 44.7125L6.25 43.75V38.75L9.1 37.7875C9.55 35.525 10.4375 33.425 11.675 31.575L10.3375 28.875L13.875 25.3375L16.575 26.675C18.425 25.4375 20.525 24.55 22.7875 24.1L23.75 21.25H28.75L29.7125 24.1C31.975 24.55 34.075 25.4375 35.925 26.675L38.625 25.3375L42.1625 28.875L41.775 29.65L40.825 31.575C42.0625 33.425 42.95 35.525 43.4 37.7875L46.25 38.75V43.75L43.4 44.7125C42.95 46.975 42.0625 49.075 40.825 50.925L40.9875 51.25H55V43.75H58.75V16.25H1.25Z" fill="#E6E9ED"/>
<path d="M58.75 8.75V16.25H1.25V8.75C1.25 7.375 2.375 6.25 3.75 6.25H8.75V10C8.75 10.6875 9.3125 11.25 10 11.25H12.5C13.1875 11.25 13.75 10.6875 13.75 10V6.25H21.25V10C21.25 10.6875 21.8125 11.25 22.5 11.25H25C25.6875 11.25 26.25 10.6875 26.25 10V6.25H33.75V10C33.75 10.6875 34.3125 11.25 35 11.25H37.5C38.1875 11.25 38.75 10.6875 38.75 10V6.25H46.25V10C46.25 10.6875 46.8125 11.25 47.5 11.25H50C50.6875 11.25 51.25 10.6875 51.25 10V6.25H56.25C57.625 6.25 58.75 7.375 58.75 8.75Z" fill="#FF826E"/>
<path d="M51.25 6.25V10C51.25 10.6875 50.6875 11.25 50 11.25H47.5C46.8125 11.25 46.25 10.6875 46.25 10V6.25V2.5C46.25 1.8125 46.8125 1.25 47.5 1.25H50C50.6875 1.25 51.25 1.8125 51.25 2.5V6.25Z" fill="#E6E9ED"/>
<path d="M46.25 38.75V43.75L43.4 44.7125C42.95 46.975 42.0625 49.075 40.825 50.925L40.9875 51.25L42.1625 53.625L41.25 54.5375L38.625 57.1625L35.925 55.825C34.075 57.0625 31.975 57.95 29.7125 58.4L28.75 61.25H23.75L22.7875 58.4C20.525 57.95 18.425 57.0625 16.575 55.825L13.875 57.1625L10.3375 53.625L11.5125 51.25L11.675 50.925C10.4375 49.075 9.55 46.975 9.1 44.7125L6.25 43.75V38.75L9.1 37.7875C9.55 35.525 10.4375 33.425 11.675 31.575L10.3375 28.875L13.875 25.3375L16.575 26.675C18.425 25.4375 20.525 24.55 22.7875 24.1L23.75 21.25H28.75L29.7125 24.1C31.975 24.55 34.075 25.4375 35.925 26.675L38.625 25.3375L42.1625 28.875L41.775 29.65L40.825 31.575C42.0625 33.425 42.95 35.525 43.4 37.7875L46.25 38.75Z" fill="#FFC729"/>
<path d="M38.75 6.25V10C38.75 10.6875 38.1875 11.25 37.5 11.25H35C34.3125 11.25 33.75 10.6875 33.75 10V6.25V2.5C33.75 1.8125 34.3125 1.25 35 1.25H37.5C38.1875 1.25 38.75 1.8125 38.75 2.5V6.25Z" fill="#E6E9ED"/>
<path d="M26.25 53.75C33.1536 53.75 38.75 48.1536 38.75 41.25C38.75 34.3464 33.1536 28.75 26.25 28.75C19.3464 28.75 13.75 34.3464 13.75 41.25C13.75 48.1536 19.3464 53.75 26.25 53.75Z" fill="#FCD770"/>
<path d="M26.25 6.25V10C26.25 10.6875 25.6875 11.25 25 11.25H22.5C21.8125 11.25 21.25 10.6875 21.25 10V6.25V2.5C21.25 1.8125 21.8125 1.25 22.5 1.25H25C25.6875 1.25 26.25 1.8125 26.25 2.5V6.25Z" fill="#E6E9ED"/>
<path d="M13.75 6.25V10C13.75 10.6875 13.1875 11.25 12.5 11.25H10C9.3125 11.25 8.75 10.6875 8.75 10V6.25V2.5C8.75 1.8125 9.3125 1.25 10 1.25H12.5C13.1875 1.25 13.75 1.8125 13.75 2.5V6.25Z" fill="#E6E9ED"/>
<path d="M26.25 37.5C26.94 37.5 27.5 38.0613 27.5 38.75H30C30 37.1225 28.9513 35.7475 27.5 35.23V32.5H25V35.23C23.5487 35.7475 22.5 37.1225 22.5 38.75C22.5 40.8175 24.1825 42.5 26.25 42.5C26.94 42.5 27.5 43.0612 27.5 43.75C27.5 44.4388 26.94 45 26.25 45C25.56 45 25 44.4388 25 43.75H22.5C22.5 45.3775 23.5487 46.7525 25 47.27V50H27.5V47.27C28.9513 46.7525 30 45.3775 30 43.75C30 41.6825 28.3175 40 26.25 40C25.56 40 25 39.4387 25 38.75C25 38.0613 25.56 37.5 26.25 37.5Z" fill="black"/>
<path d="M26.25 27.5C18.6687 27.5 12.5 33.6687 12.5 41.25C12.5 48.8312 18.6687 55 26.25 55C33.8312 55 40 48.8312 40 41.25C40 33.6687 33.8312 27.5 26.25 27.5ZM26.25 52.5C20.0463 52.5 15 47.4525 15 41.25C15 35.0475 20.0463 30 26.25 30C32.4538 30 37.5 35.0475 37.5 41.25C37.5 47.4525 32.4538 52.5 26.25 52.5Z" fill="black"/>
<path d="M67.5 32.5V75H63.75V42.5H60V8.75C60 6.6825 58.3175 5 56.25 5H52.5V2.5C52.5 1.12125 51.3787 0 50 0H47.5C46.1213 0 45 1.12125 45 2.5V5H40V2.5C40 1.12125 38.8787 0 37.5 0H35C33.6213 0 32.5 1.12125 32.5 2.5V5H27.5V2.5C27.5 1.12125 26.3787 0 25 0H22.5C21.1213 0 20 1.12125 20 2.5V5H15V2.5C15 1.12125 13.8787 0 12.5 0H10C8.62125 0 7.5 1.12125 7.5 2.5V5H3.75C1.6825 5 0 6.6825 0 8.75V48.75C0 50.8175 1.6825 52.5 3.75 52.5H9.5025L8.8225 53.8737L13.6275 58.6787L16.4937 57.2575C18.1562 58.275 19.9475 59.0175 21.8325 59.4725L22.8525 62.5H29.6475L30.6688 59.4725C32.5537 59.0175 34.3438 58.275 36.0075 57.2575L38.8737 58.6787L40 57.5525V75H36.25V65H26.25V77.5H77.5V32.5H67.5ZM33.75 75H28.75V67.5H33.75V75ZM61.25 75H56.25V45H61.25V75ZM47.5 2.5H50L50.0013 10H47.5V2.5ZM35 2.5H37.5L37.5013 10H35V2.5ZM22.5 2.5H25L25.0012 10H22.5V2.5ZM10 2.5H12.5L12.5013 10H10V2.5ZM3.75 7.5H7.5V10C7.5 11.3787 8.62125 12.5 10 12.5H12.5C13.8787 12.5 15 11.3787 15 10V7.5H20V10C20 11.3787 21.1213 12.5 22.5 12.5H25C26.3787 12.5 27.5 11.3787 27.5 10V7.5H32.5V10C32.5 11.3787 33.6213 12.5 35 12.5H37.5C38.8787 12.5 40 11.3787 40 10V7.5H45V10C45 11.3787 46.1213 12.5 47.5 12.5H50C51.3787 12.5 52.5 11.3787 52.5 10V7.5H56.25C56.94 7.5 57.5 8.06125 57.5 8.75V15H2.5V8.75C2.5 8.06125 3.06 7.5 3.75 7.5ZM2.5 48.75V17.5H57.5V42.5H53.75V75H50V50H42.8225C43.55 48.6275 44.1087 47.1813 44.4737 45.6688L47.5 44.6475V37.8525L44.4725 36.8312C44.0175 34.945 43.275 33.155 42.2588 31.4925L43.6787 28.6262L38.8737 23.8212L36.0075 25.2425C34.345 24.225 32.5537 23.4825 30.6688 23.0275L29.6475 20H22.8525L21.8312 23.0275C19.9463 23.4825 18.1562 24.225 16.4925 25.2425L13.6263 23.8212L8.82125 28.6262L10.2413 31.4925C9.225 33.155 8.4825 34.945 8.0275 36.8312L5 37.8525V44.6475L8.0275 45.6688C8.3925 47.1813 8.95 48.6275 9.6775 50H3.75C3.06 50 2.5 49.4388 2.5 48.75ZM38.375 55.6413L35.8387 54.3838L35.2388 54.7837C33.4725 55.9587 31.53 56.765 29.4662 57.1787L28.7588 57.32L27.8525 60H24.6475L23.7425 57.32L23.035 57.1787C20.9712 56.765 19.0288 55.9587 17.2625 54.7837L16.6625 54.3838L14.125 55.6413L11.8588 53.375L13.115 50.8388L12.7163 50.2388C11.5425 48.4725 10.7362 46.5312 10.3212 44.465L10.18 43.7575L7.5 42.8525V39.6475L10.18 38.7438L10.3212 38.0363C10.7362 35.97 11.5425 34.0275 12.7163 32.2625L13.115 31.6625L11.8588 29.125L14.1237 26.8587L16.66 28.1162L17.26 27.7163C19.0262 26.5413 20.9688 25.735 23.0325 25.3213L23.74 25.18L24.6475 22.5H27.8525L28.7575 25.18L29.465 25.3213C31.5288 25.735 33.4713 26.5413 35.2375 27.7163L35.8375 28.1162L38.3737 26.8587L40.6388 29.125L39.3825 31.6613L39.7812 32.2612C40.955 34.0262 41.7612 35.9688 42.1763 38.035L42.3175 38.7425L45 39.6475V42.8525L42.32 43.7563L42.1787 44.4637C41.7637 46.5287 40.9575 48.4712 39.7837 50.2375L39.385 50.8375L40.6413 53.3738L38.375 55.6413ZM42.5 55.0525L43.6775 53.875L42.9975 52.5H47.5V75H42.5V55.0525ZM75 75H70V35H75V75Z" fill="black"/>
<path d="M55 20H45V22.5H55V20Z" fill="black"/>
<path d="M55 25H45V27.5H55V25Z" fill="black"/>
<path d="M55 30H45V32.5H55V30Z" fill="black"/>
</svg>
